<?xml version="1.0" encoding="UTF-8"?> <svg xmlns="http://www.w3.org/2000/svg" width="84" height="84" viewBox="0 0 84 84" fill="none"><path d="M42.0466 81.332C20.397 81.332 2.84448 63.7814 2.84448 42.132C2.84448 20.4826 20.397 2.93201 42.0466 2.93201C63.6963 2.93201 81.2488 20.4826 81.2488 42.132C81.2488 63.7814 63.6963 81.332 42.0466 81.332Z" stroke="#FF3F3C" stroke-width="4" stroke-miterlimit="10"></path><path fill-rule="evenodd" clip-rule="evenodd" d="M47.2507 36.3563C49.1006 35.3931 51.4543 33.9752 53.8109 32.0326C54.3078 33.1101 54.3622 34.0504 54.1062 34.8096C53.9248 35.3447 53.5829 35.8101 53.1334 36.1803C52.6466 36.5805 52.0387 36.8718 51.3666 37.0292C50.0915 37.3292 48.6027 37.1541 47.2507 36.3563ZM47.5714 46.2254L50.0201 47.7024C45.0204 50.6287 43.6612 56.0623 42.0466 61.3547C40.4322 56.0623 39.0728 50.6287 34.0732 47.7024L36.5219 46.2254C36.7588 46.1319 36.9613 45.9626 37.1003 45.7415C37.2393 45.5205 37.3078 45.2592 37.2959 44.9951C37.0716 40.0386 38.3532 37.8468 40.0819 36.4706C40.7019 35.9776 41.3788 35.7301 42.0466 35.7301C42.7144 35.7301 43.3913 35.9776 44.0115 36.4706C45.7402 37.8468 47.0218 40.0386 46.7974 44.9951C46.7855 45.2592 46.854 45.5205 46.9931 45.7415C47.1321 45.9626 47.3346 46.1319 47.5714 46.2254ZM42.0466 13.8619C44.877 13.9412 47.7146 14.515 50.1772 15.6313C51.8825 16.4053 53.4737 17.4276 54.9145 18.6501C55.5652 19.2021 56.1009 19.7352 56.6911 20.349C58.2829 20.4065 60.6093 18.5598 61.6893 16.8319C59.8306 23.1951 51.3489 30.7094 45.4769 33.5848C45.4745 33.5837 45.4729 33.5822 45.4711 33.581C44.4173 32.7407 43.232 32.3205 42.0466 32.3205C40.8611 32.3205 39.6761 32.7407 38.6223 33.581C38.6205 33.582 38.6189 33.5839 38.6164 33.5848C32.7443 30.7094 24.2627 23.1951 22.4041 16.8319C23.4839 18.5598 25.8102 20.4065 27.402 20.349C27.9924 19.7354 28.5282 19.2021 29.1787 18.6501C30.6195 17.4276 32.2107 16.4053 33.916 15.6313C36.3788 14.515 39.2163 13.9412 42.0466 13.8619ZM36.8424 36.3563C34.9928 35.3931 32.6388 33.9752 30.2825 32.0326C29.7856 33.1101 29.7312 34.0504 29.987 34.8096C30.1686 35.3447 30.5104 35.8101 30.9597 36.1803C31.4467 36.5805 32.0547 36.8718 32.7267 37.0292C34.0019 37.3292 35.4905 37.1541 36.8424 36.3563Z" fill="#FF3F3C"></path><path fill-rule="evenodd" clip-rule="evenodd" d="M56.3919 29.6521C57.6892 28.285 58.8323 26.7718 59.7515 25.4214L60.2183 26.339C61.7212 29.4789 62.5021 32.6062 62.5021 36.1256L62.4989 41.7104L62.5271 44.6055C62.636 51.7129 64.1087 58.904 67.4447 65.4848L60.4648 59.6074L55.5261 67.9764L50.3377 62.8759L42.0467 76.9261L33.7556 62.8762L28.5674 67.9766L23.6287 59.6076L16.6487 65.485C19.9847 58.9042 21.4574 51.7131 21.5664 44.6057L21.5946 41.7106L21.5914 36.1258C21.5914 32.6062 22.3721 29.4789 23.8754 26.3392L24.3421 25.4217C25.2612 26.772 26.4041 28.285 27.7016 29.6523L27.2965 30.5311C26.5094 32.238 26.2487 34.1465 26.8619 35.9616C27.2572 37.1307 27.9786 38.1333 28.9087 38.8986C29.8117 39.6419 30.8804 40.1428 31.9993 40.4059C32.7282 40.5773 33.4708 40.6478 34.2086 40.6238C34.0364 41.6428 33.9612 42.6997 33.9564 43.7765L27.3723 47.7477L32.4531 50.7217C32.8592 50.9595 33.2458 51.2319 33.6089 51.5361C37.7977 55.4635 40.3162 67.082 42.0469 72.7571C43.7778 67.082 46.296 55.4635 50.4851 51.5361C50.8482 51.2318 51.2347 50.9594 51.6409 50.7217L56.7217 47.7477L50.1373 43.7765C50.1325 42.6997 50.0573 41.6428 49.8852 40.6238C50.6229 40.6478 51.3655 40.5773 52.0944 40.4059C53.2133 40.1428 54.2823 39.6419 55.1851 38.8986C56.1149 38.1333 56.8366 37.1307 57.2316 35.9616C57.845 34.1465 57.5842 32.2382 56.7973 30.5311L56.3921 29.6523L56.3919 29.6521Z" fill="#FF3F3C"></path></svg> 