<?xml version="1.0" encoding="UTF-8"?> <svg xmlns="http://www.w3.org/2000/svg" width="83" height="83" viewBox="0 0 83 83" fill="none"><rect x="2.01294" y="2" width="78.7653" height="78.7653" rx="39.3826" stroke="#FF3F3C" stroke-width="4"></rect><mask id="path-2-inside-1_293_55596" fill="white"><path fill-rule="evenodd" clip-rule="evenodd" d="M35.1827 15.6534C31.8611 17.4539 29.1435 18.9775 29.1441 19.0394C29.1455 19.1994 37.1162 23.3997 37.3991 23.3895C37.5277 23.385 38.4613 22.9378 39.4735 22.3959L40.3708 21.9157C40.9602 21.6002 41.6683 21.6001 42.2578 21.9154L43.3245 22.486L44.4514 23.0889C45.0073 23.3863 45.6709 23.4041 46.242 23.1371L48.6266 22.0221C53.587 19.7027 54.1022 19.4486 54.0215 19.3632C53.9143 19.2499 52.1351 18.2553 47.308 15.611C44.9752 14.3329 42.7109 13.0798 42.2762 12.8263C41.8416 12.5727 41.4267 12.3687 41.3542 12.3727C41.2817 12.3766 38.5045 13.853 35.1827 15.6534ZM20.614 23.5036L18.2093 24.796C17.5607 25.1446 17.1561 25.8214 17.1561 26.5577V33.5187C17.1561 38.0049 17.2015 41.6753 17.2572 41.6753C17.3127 41.6753 19.014 40.908 21.0377 39.9701L23.5582 38.8019C24.2649 38.4744 24.7172 37.7663 24.7172 36.9874V31.734C24.7172 30.8112 25.7125 30.2314 26.5152 30.6865V30.6865C27.9008 31.4712 29.2872 32.2544 30.6744 33.036L32.1361 33.8595C32.7003 34.1774 33.3834 34.2024 33.9694 33.9267L34.086 33.8718C34.7449 33.5613 35.4025 33.2477 36.0587 32.9312C36.5658 32.6854 37.8107 32.102 38.8249 31.6345C39.8392 31.1667 40.7781 30.6963 40.9112 30.5891C41.0881 30.4467 38.9316 29.2066 32.9349 26.0024C28.4147 23.587 24.5713 21.6185 24.3941 21.6279C24.2169 21.6373 22.5158 22.4813 20.614 23.5036ZM54.6446 24.0255C52.2897 25.1317 50.3612 26.0811 50.359 26.1352C50.3569 26.1893 51.6405 26.9834 53.2115 27.8997C54.7824 28.8162 56.0677 29.615 56.0677 29.6752C56.0677 29.7352 54.6776 30.436 52.9788 31.2329C51.2798 32.0296 46.9853 34.0477 43.4353 35.7175L31.5405 41.3122C28.5484 42.7197 25.8513 43.9883 25.5471 44.1317C19.4355 47.0106 17.7557 47.8094 17.525 47.9465C17.293 48.0846 17.2405 48.8866 17.1992 52.9121L17.1624 56.4959C17.1547 57.2436 17.5648 57.9332 18.2254 58.2834L20.242 59.3526L22.4514 60.524C23.0071 60.8186 23.6691 60.8347 24.2384 60.5673L27.6217 58.9785C29.98 57.8711 31.9094 56.9071 31.9094 56.8361C31.9094 56.7653 31.4736 56.4698 30.9412 56.1793C30.4086 55.8887 29.3091 55.2455 28.4977 54.7496C27.6863 54.2536 26.8773 53.7986 26.6996 53.7383C26.5221 53.6781 26.3794 53.5728 26.3822 53.5042C26.3852 53.4357 28.2733 52.5025 30.5777 51.4303C35.0537 49.3479 38.479 47.7429 45.8327 44.2826C49.121 42.7355 52.4098 41.1894 55.6989 39.6443C58.5896 38.2866 61.9506 36.7009 63.1678 36.1206L64.2542 35.6026C64.9436 35.2739 65.3856 34.5812 65.3934 33.8175L65.4299 30.2096L65.467 26.5671C65.4746 25.8216 65.067 25.1338 64.4094 24.7825L62.3432 23.679C60.6182 22.7579 59.1438 22.0064 59.0665 22.0092C58.9893 22.0117 56.9994 22.9189 54.6446 24.0255ZM64.5405 41.5434C64.0783 41.7783 63.1655 42.2181 62.512 42.5206C61.8584 42.8231 60.6182 43.4054 59.756 43.8148L59.3204 44.0215C58.6281 44.3501 58.1844 45.0453 58.178 45.8116L58.1527 48.8217C58.133 51.1663 58.05 53.0742 57.9684 53.0618C57.7828 53.0331 54.8449 51.4652 51.8917 49.8186C49.7602 48.6303 49.6263 48.5831 49.1254 48.8412C48.8359 48.9905 47.1052 49.7981 45.2795 50.6363C43.4537 51.4744 41.9005 52.2148 41.8274 52.2818C41.7545 52.3487 45.429 54.4211 49.9931 56.8872L57.3423 60.8583C57.9346 61.1784 58.6482 61.1789 59.241 60.8598L61.8361 59.463C63.7855 58.4137 65.4432 57.4565 65.5196 57.3361C65.6914 57.0654 65.6767 41.0791 65.5047 41.1008C65.4366 41.1092 65.0026 41.3085 64.5405 41.5434ZM44.9107 60.3073C44.2958 60.5823 43.6811 60.8578 43.0665 61.1336C41.2107 61.9691 41.5744 61.9968 39.3666 60.8531C37.8961 60.0914 37.2622 59.8564 36.9871 59.9705C36.7807 60.056 35.0046 60.8875 33.0398 61.8182C31.0752 62.7488 29.3996 63.5103 29.3163 63.5103C28.492 63.5103 29.8624 64.3622 35.1503 67.1378L40.4322 69.91C41.0087 70.2126 41.6964 70.2156 42.2756 69.9181L43.9611 69.0522C45.3962 68.3149 48.2908 66.8386 50.3937 65.7715C52.4964 64.7041 54.1908 63.8032 54.1591 63.7692C54.1271 63.7353 52.3652 62.7939 50.2436 61.6771L47.2467 60.0999C46.7033 59.8139 46.0587 59.7934 45.4982 60.0443L44.9107 60.3073Z"></path></mask><path fill-rule="evenodd" clip-rule="evenodd" d="M35.1827 15.6534C31.8611 17.4539 29.1435 18.9775 29.1441 19.0394C29.1455 19.1994 37.1162 23.3997 37.3991 23.3895C37.5277 23.385 38.4613 22.9378 39.4735 22.3959L40.3708 21.9157C40.9602 21.6002 41.6683 21.6001 42.2578 21.9154L43.3245 22.486L44.4514 23.0889C45.0073 23.3863 45.6709 23.4041 46.242 23.1371L48.6266 22.0221C53.587 19.7027 54.1022 19.4486 54.0215 19.3632C53.9143 19.2499 52.1351 18.2553 47.308 15.611C44.9752 14.3329 42.7109 13.0798 42.2762 12.8263C41.8416 12.5727 41.4267 12.3687 41.3542 12.3727C41.2817 12.3766 38.5045 13.853 35.1827 15.6534ZM20.614 23.5036L18.2093 24.796C17.5607 25.1446 17.1561 25.8214 17.1561 26.5577V33.5187C17.1561 38.0049 17.2015 41.6753 17.2572 41.6753C17.3127 41.6753 19.014 40.908 21.0377 39.9701L23.5582 38.8019C24.2649 38.4744 24.7172 37.7663 24.7172 36.9874V31.734C24.7172 30.8112 25.7125 30.2314 26.5152 30.6865V30.6865C27.9008 31.4712 29.2872 32.2544 30.6744 33.036L32.1361 33.8595C32.7003 34.1774 33.3834 34.2024 33.9694 33.9267L34.086 33.8718C34.7449 33.5613 35.4025 33.2477 36.0587 32.9312C36.5658 32.6854 37.8107 32.102 38.8249 31.6345C39.8392 31.1667 40.7781 30.6963 40.9112 30.5891C41.0881 30.4467 38.9316 29.2066 32.9349 26.0024C28.4147 23.587 24.5713 21.6185 24.3941 21.6279C24.2169 21.6373 22.5158 22.4813 20.614 23.5036ZM54.6446 24.0255C52.2897 25.1317 50.3612 26.0811 50.359 26.1352C50.3569 26.1893 51.6405 26.9834 53.2115 27.8997C54.7824 28.8162 56.0677 29.615 56.0677 29.6752C56.0677 29.7352 54.6776 30.436 52.9788 31.2329C51.2798 32.0296 46.9853 34.0477 43.4353 35.7175L31.5405 41.3122C28.5484 42.7197 25.8513 43.9883 25.5471 44.1317C19.4355 47.0106 17.7557 47.8094 17.525 47.9465C17.293 48.0846 17.2405 48.8866 17.1992 52.9121L17.1624 56.4959C17.1547 57.2436 17.5648 57.9332 18.2254 58.2834L20.242 59.3526L22.4514 60.524C23.0071 60.8186 23.6691 60.8347 24.2384 60.5673L27.6217 58.9785C29.98 57.8711 31.9094 56.9071 31.9094 56.8361C31.9094 56.7653 31.4736 56.4698 30.9412 56.1793C30.4086 55.8887 29.3091 55.2455 28.4977 54.7496C27.6863 54.2536 26.8773 53.7986 26.6996 53.7383C26.5221 53.6781 26.3794 53.5728 26.3822 53.5042C26.3852 53.4357 28.2733 52.5025 30.5777 51.4303C35.0537 49.3479 38.479 47.7429 45.8327 44.2826C49.121 42.7355 52.4098 41.1894 55.6989 39.6443C58.5896 38.2866 61.9506 36.7009 63.1678 36.1206L64.2542 35.6026C64.9436 35.2739 65.3856 34.5812 65.3934 33.8175L65.4299 30.2096L65.467 26.5671C65.4746 25.8216 65.067 25.1338 64.4094 24.7825L62.3432 23.679C60.6182 22.7579 59.1438 22.0064 59.0665 22.0092C58.9893 22.0117 56.9994 22.9189 54.6446 24.0255ZM64.5405 41.5434C64.0783 41.7783 63.1655 42.2181 62.512 42.5206C61.8584 42.8231 60.6182 43.4054 59.756 43.8148L59.3204 44.0215C58.6281 44.3501 58.1844 45.0453 58.178 45.8116L58.1527 48.8217C58.133 51.1663 58.05 53.0742 57.9684 53.0618C57.7828 53.0331 54.8449 51.4652 51.8917 49.8186C49.7602 48.6303 49.6263 48.5831 49.1254 48.8412C48.8359 48.9905 47.1052 49.7981 45.2795 50.6363C43.4537 51.4744 41.9005 52.2148 41.8274 52.2818C41.7545 52.3487 45.429 54.4211 49.9931 56.8872L57.3423 60.8583C57.9346 61.1784 58.6482 61.1789 59.241 60.8598L61.8361 59.463C63.7855 58.4137 65.4432 57.4565 65.5196 57.3361C65.6914 57.0654 65.6767 41.0791 65.5047 41.1008C65.4366 41.1092 65.0026 41.3085 64.5405 41.5434ZM44.9107 60.3073C44.2958 60.5823 43.6811 60.8578 43.0665 61.1336C41.2107 61.9691 41.5744 61.9968 39.3666 60.8531C37.8961 60.0914 37.2622 59.8564 36.9871 59.9705C36.7807 60.056 35.0046 60.8875 33.0398 61.8182C31.0752 62.7488 29.3996 63.5103 29.3163 63.5103C28.492 63.5103 29.8624 64.3622 35.1503 67.1378L40.4322 69.91C41.0087 70.2126 41.6964 70.2156 42.2756 69.9181L43.9611 69.0522C45.3962 68.3149 48.2908 66.8386 50.3937 65.7715C52.4964 64.7041 54.1908 63.8032 54.1591 63.7692C54.1271 63.7353 52.3652 62.7939 50.2436 61.6771L47.2467 60.0999C46.7033 59.8139 46.0587 59.7934 45.4982 60.0443L44.9107 60.3073Z" fill="#FF3F3C"></path><path d="M35.1827 15.6534L18.5045 -15.1173L18.5038 -15.1169L35.1827 15.6534ZM29.1441 19.0394L64.1426 18.7157L64.1425 18.7125L29.1441 19.0394ZM37.3991 23.3895L36.1804 -11.5893L36.1568 -11.5885L36.1332 -11.5876L37.3991 23.3895ZM39.4735 22.3959L22.958 -8.46249L22.9537 -8.46015L39.4735 22.3959ZM43.3245 22.486L59.8349 -8.3751L59.8317 -8.37682L43.3245 22.486ZM48.6266 22.0221L63.4511 53.7276L63.4514 53.7274L48.6266 22.0221ZM54.0215 19.3632L28.5919 43.4119L28.5953 43.4154L54.0215 19.3632ZM47.308 15.611L30.4917 46.3064L30.4923 46.3068L47.308 15.611ZM42.2762 12.8263L24.6391 43.0576L24.641 43.0587L42.2762 12.8263ZM20.614 23.5036L37.184 54.3326L37.1849 54.3322L20.614 23.5036ZM21.0377 39.9701L35.7548 71.7255L35.7548 71.7255L21.0377 39.9701ZM30.6744 33.036L13.4941 63.5292L13.4946 63.5295L30.6744 33.036ZM34.086 33.8718L48.9874 65.5412L48.9971 65.5366L49.0067 65.5321L34.086 33.8718ZM36.0587 32.9312L51.2655 64.455L51.2935 64.4415L51.3215 64.428L36.0587 32.9312ZM38.8249 31.6345L53.4777 63.4196L53.4829 63.4172L38.8249 31.6345ZM40.9112 30.5891L18.9605 3.32797L18.9589 3.32929L40.9112 30.5891ZM32.9349 26.0024L16.4399 56.8717L16.44 56.8717L32.9349 26.0024ZM54.6446 24.0255L69.5259 55.7043L69.5298 55.7025L54.6446 24.0255ZM50.359 26.1352L15.3875 24.7227L15.3859 24.7634L15.3843 24.804L50.359 26.1352ZM53.2115 27.8997L70.8488 -2.33155L70.8448 -2.33386L53.2115 27.8997ZM52.9788 31.2329L67.8379 62.9222L67.8428 62.9199L52.9788 31.2329ZM43.4353 35.7175L58.332 67.3891L58.3331 67.3886L43.4353 35.7175ZM31.5405 41.3122L16.6439 9.64061L16.6427 9.64116L31.5405 41.3122ZM25.5471 44.1317L40.4619 75.7948L40.4695 75.7912L25.5471 44.1317ZM17.525 47.9465L-0.35825 17.8601L-0.366505 17.865L-0.374758 17.8699L17.525 47.9465ZM17.1992 52.9121L52.1973 53.2712L52.1973 53.271L17.1992 52.9121ZM20.242 59.3526L3.84716 90.2752L3.84743 90.2754L20.242 59.3526ZM27.6217 58.9785L12.7457 27.2972L12.7443 27.2979L27.6217 58.9785ZM30.9412 56.1793L47.7091 25.4573L47.7029 25.4539L30.9412 56.1793ZM28.4977 54.7496L10.2439 84.6126L10.2467 84.6143L28.4977 54.7496ZM26.6996 53.7383L37.9609 20.5994L37.9459 20.5943L37.9309 20.5892L26.6996 53.7383ZM26.3822 53.5042L-8.58512 51.9931L-8.58592 52.0117L-8.58671 52.0302L26.3822 53.5042ZM30.5777 51.4303L15.814 19.6965L15.8122 19.6973L30.5777 51.4303ZM45.8327 44.2826L30.9331 12.6123L30.9305 12.6136L45.8327 44.2826ZM55.6989 39.6443L40.8198 7.96446L40.8172 7.96566L55.6989 39.6443ZM63.1678 36.1206L78.2308 67.7134L78.2309 67.7133L63.1678 36.1206ZM65.4299 30.2096L30.4317 29.8532L30.4317 29.855L65.4299 30.2096ZM62.3432 23.679L78.8321 -7.19358L78.8301 -7.19464L62.3432 23.679ZM59.0665 22.0092L60.2182 56.9902L60.2631 56.9887L60.308 56.9871L59.0665 22.0092ZM59.756 43.8148L74.7627 75.4344L74.7677 75.432L59.756 43.8148ZM58.1527 48.8217L93.1515 49.1164L93.1515 49.1153L58.1527 48.8217ZM57.9684 53.0618L52.6165 87.6502L52.6698 87.6584L52.7231 87.6665L57.9684 53.0618ZM51.8917 49.8186L68.9364 19.2494L68.9345 19.2483L51.8917 49.8186ZM49.1254 48.8412L33.0925 17.7294L33.0846 17.7334L49.1254 48.8412ZM45.2795 50.6363L59.8802 82.4454L59.8826 82.4443L45.2795 50.6363ZM41.8274 52.2818L18.161 26.4962L18.1527 26.5038L41.8274 52.2818ZM49.9931 56.8872L66.6316 26.095L66.6313 26.0948L49.9931 56.8872ZM61.8361 59.463L45.2473 28.644L45.247 28.6441L61.8361 59.463ZM65.5196 57.3361L35.9708 38.5779L35.966 38.5856L35.9611 38.5932L65.5196 57.3361ZM65.5047 41.1008L69.8427 75.8309L69.8553 75.8293L69.8679 75.8277L65.5047 41.1008ZM44.9107 60.3073L59.203 92.2561L59.2101 92.2529L44.9107 60.3073ZM43.0665 61.1336L28.7332 29.2031L28.7161 29.2108L28.6991 29.2185L43.0665 61.1336ZM39.3666 60.8531L55.4651 29.7752L55.4645 29.7749L39.3666 60.8531ZM36.9871 59.9705L50.3863 92.3041L50.3948 92.3006L36.9871 59.9705ZM33.0398 61.8182L18.0569 30.1873L18.0561 30.1877L33.0398 61.8182ZM35.1503 67.1378L18.8838 98.1281L18.885 98.1288L35.1503 67.1378ZM43.9611 69.0522L59.9541 100.185L59.9545 100.184L43.9611 69.0522ZM50.3937 65.7715L66.232 96.9829L66.2363 96.9807L50.3937 65.7715ZM54.1591 63.7692L79.7548 39.8974L79.6831 39.8206L79.6111 39.7442L54.1591 63.7692ZM50.2436 61.6771L66.5459 30.7056L66.5443 30.7047L50.2436 61.6771ZM45.4982 60.0443L31.1988 28.0986L45.4982 60.0443ZM40.4322 69.91L56.6976 38.9191L40.4322 69.91ZM42.2756 69.9181L26.2825 38.7857L42.2756 69.9181ZM65.467 26.5671L100.465 26.9235L65.467 26.5671ZM18.2254 58.2834L34.6203 27.3608L18.2254 58.2834ZM57.3423 60.8583L40.7039 91.6506L57.3423 60.8583ZM59.241 60.8598L42.6519 30.041L59.241 60.8598ZM32.1361 33.8595L14.9564 64.3531L32.1361 33.8595ZM33.9694 33.9267L19.0679 2.25735L33.9694 33.9267ZM46.242 23.1371L61.0664 54.8426L46.242 23.1371ZM22.4514 60.524L38.846 29.6012L38.846 29.6012L22.4514 60.524ZM24.2384 60.5673L39.1159 92.2479L24.2384 60.5673ZM23.5582 38.8019L8.84109 7.04652L23.5582 38.8019ZM64.2542 35.6026L79.3174 67.1953L64.2542 35.6026ZM65.3934 33.8175L100.392 34.1721L65.3934 33.8175ZM59.3204 44.0215L74.327 75.6412L59.3204 44.0215ZM58.178 45.8116L23.1792 45.518L58.178 45.8116ZM40.3708 21.9157L23.8553 -8.9427L40.3708 21.9157ZM18.5038 -15.1169C16.7429 -14.1625 15.0802 -13.248 13.8002 -12.5303C13.1882 -12.1871 12.5176 -11.8072 11.9233 -11.4589C11.678 -11.3151 11.1454 -11.0017 10.5478 -10.6234C10.3352 -10.4888 9.55798 -9.99747 8.62495 -9.3207C8.27305 -9.06545 7.03735 -8.16868 5.59784 -6.85896C4.96227 -6.2807 3.3188 -4.75735 1.56229 -2.5084C0.678808 -1.37723 -0.836152 0.697171 -2.24932 3.56435C-3.5062 6.11443 -5.92551 11.754 -5.8544 19.3663L64.1425 18.7125C64.2136 26.3238 61.7946 31.9623 60.5384 34.5111C59.1259 37.3769 57.6119 39.4498 56.7298 40.5793C54.9759 42.8249 53.3363 44.3442 52.706 44.9177C51.2769 46.2179 50.0569 47.1024 49.7256 47.3426C48.834 47.9894 48.1183 48.4399 47.9865 48.5234C47.7286 48.6866 47.5377 48.802 47.4653 48.8455C47.3782 48.898 47.3245 48.9294 47.3172 48.9337C47.3057 48.9405 47.3603 48.9085 47.5022 48.8276C47.6362 48.7513 47.8132 48.6513 48.0349 48.527C48.944 48.0173 50.3009 47.2697 51.8617 46.4237L18.5038 -15.1169ZM-5.85443 19.3631C-5.77638 27.8033 -2.68196 33.8493 -1.36855 36.1871C0.20595 38.9896 1.83449 40.9745 2.71903 41.9934C4.50492 44.0508 6.13691 45.4329 6.73258 45.9304C8.11884 47.088 9.29967 47.8861 9.63859 48.1151C10.5443 48.7271 11.3186 49.189 11.586 49.3481C12.2833 49.7632 12.9771 50.151 13.4469 50.4111C14.4826 50.9843 15.7157 51.6448 16.8491 52.2421C17.9854 52.8409 19.2295 53.4857 20.2958 54.0206C20.7904 54.2687 21.477 54.6092 22.1792 54.9364C22.4778 55.0755 23.1654 55.3937 24.0072 55.738C24.3802 55.8906 25.289 56.2576 26.4629 56.6418C27.0357 56.8293 28.1345 57.1745 29.5424 57.498C30.3477 57.683 33.9658 58.5366 38.6649 58.3666L36.1332 -11.5876C40.8235 -11.7574 44.429 -10.9056 45.218 -10.7242C46.6097 -10.4045 47.6886 -10.065 48.2381 -9.88516C49.3652 -9.51624 50.2132 -9.17228 50.5123 -9.04995C51.2062 -8.76605 51.6936 -8.53728 51.7472 -8.51228C51.9593 -8.41345 51.9768 -8.40074 51.6843 -8.54745C51.1765 -8.8022 50.3749 -9.21555 49.483 -9.68556C48.5882 -10.1571 47.8106 -10.576 47.3426 -10.835C47.0606 -10.9911 47.1292 -10.9575 47.3892 -10.8028C47.4379 -10.7738 48.0406 -10.4185 48.8292 -9.88565C49.1096 -9.6962 50.2456 -8.93074 51.6016 -7.79835C52.1821 -7.31354 53.8026 -5.94219 55.5808 -3.89374C56.4615 -2.8792 58.0871 -0.898353 59.6597 1.9007C60.9711 4.23504 64.0645 10.2781 64.1426 18.7157L-5.85443 19.3631ZM38.6178 58.3682C42.477 58.2338 45.4207 57.4688 46.1807 57.2726C47.3967 56.9587 48.3539 56.6415 48.8812 56.4599C49.9536 56.0906 50.7967 55.7424 51.1922 55.5762C52.0621 55.2108 52.7977 54.8644 53.224 54.6603C54.1643 54.2099 55.1255 53.7165 55.9934 53.2519L22.9537 -8.46015C22.8093 -8.38285 22.7976 -8.38163 22.9859 -8.47183C23.0362 -8.49592 23.451 -8.69574 24.078 -8.95919C24.3522 -9.07437 25.0933 -9.38259 26.0861 -9.72453C26.5735 -9.89242 27.4965 -10.1989 28.6842 -10.5055C29.2927 -10.6626 30.1805 -10.8745 31.2655 -11.0681C32.2676 -11.2469 34.0019 -11.5134 36.1804 -11.5893L38.6178 58.3682ZM55.989 53.2543L56.8862 52.7741L23.8553 -8.9427L22.958 -8.46249L55.989 53.2543ZM25.7505 52.7782L26.8172 53.3487L59.8317 -8.37682L58.765 -8.94735L25.7505 52.7782ZM26.814 53.347L27.941 53.9499L60.9618 -7.7722L59.8349 -8.3751L26.814 53.347ZM61.0664 54.8426L63.4511 53.7276L33.8022 -9.68333L31.4175 -8.56834L61.0664 54.8426ZM63.4514 53.7274C65.7664 52.645 67.5438 51.8127 68.6886 51.2484C68.8709 51.1586 70.6761 50.2922 72.5617 49.1047C72.7072 49.0131 77.1582 46.4039 81.1274 41.5424C83.2293 38.9681 88.1424 32.251 88.9257 22.0649C89.8534 9.99938 84.5522 0.707159 79.4476 -4.68903L28.5953 43.4154C23.5008 38.0299 18.205 28.7497 19.1317 16.6984C19.9138 6.52647 24.8193 -0.174101 26.9051 -2.7288C30.8423 -7.55091 35.2276 -10.1082 35.2586 -10.1277C36.9153 -11.171 38.2969 -11.8129 37.7403 -11.5386C37.4076 -11.3746 36.4473 -10.9201 33.8018 -9.68314L63.4514 53.7274ZM79.451 -4.68549C77.7798 -6.45269 76.2921 -7.64622 75.7713 -8.05976C75.0696 -8.61691 74.4823 -9.03925 74.1356 -9.28344C73.443 -9.77125 72.8715 -10.1362 72.6042 -10.3052C72.029 -10.6689 71.5278 -10.9639 71.2771 -11.1105C70.7133 -11.4403 70.0864 -11.7938 69.511 -12.1154C68.3052 -12.7894 66.5357 -13.7635 64.1237 -15.0848L30.4923 46.3068C32.9075 47.6298 34.4411 48.4751 35.3584 48.9878C35.8446 49.2595 35.9843 49.3412 35.9351 49.3125C35.9084 49.2969 35.8366 49.2547 35.7326 49.1921C35.6381 49.1353 35.4465 49.0192 35.1962 48.861C34.9972 48.7352 34.4797 48.4058 33.8273 47.9463C33.5007 47.7163 32.93 47.3063 32.2416 46.7597C31.8882 46.479 31.4064 46.0853 30.8507 45.5947C30.3236 45.1294 29.515 44.388 28.5919 43.4119L79.451 -4.68549ZM64.1244 -15.0845C62.9959 -15.7027 61.8907 -16.3113 61.0279 -16.7888C60.5944 -17.0287 60.242 -17.2245 59.9878 -17.3665C59.6268 -17.5682 59.6909 -17.5348 59.9114 -17.4062L24.641 43.0587C25.59 43.6123 28.3865 45.1531 30.4917 46.3064L64.1244 -15.0845ZM59.9134 -17.405C59.1176 -17.8693 58.1674 -18.392 57.1261 -18.9041C56.6622 -19.1323 55.7327 -19.5801 54.5542 -20.0552C54.0054 -20.2764 52.8621 -20.7242 51.3821 -21.1648C51.2159 -21.2142 46.0652 -22.9358 39.4504 -22.5755L43.258 47.3209C39.2607 47.5386 36.1522 47.0061 34.909 46.7725C33.3604 46.4815 32.1361 46.1417 31.4115 45.926C29.9698 45.4969 28.8742 45.0664 28.3812 44.8676C27.3145 44.4376 26.5295 44.0559 26.2327 43.9099C25.5257 43.5622 25.0003 43.2683 24.6391 43.0576L59.9134 -17.405ZM39.4504 -22.5755C34.6267 -22.3127 30.9279 -21.0392 30.7576 -20.9851C29.67 -20.6398 28.8313 -20.3138 28.4483 -20.1621C27.6313 -19.8385 27.002 -19.5526 26.7791 -19.4509C26.2463 -19.2078 25.8205 -18.9973 25.6699 -18.9227C25.2915 -18.7353 24.9401 -18.5541 24.7237 -18.442C24.2391 -18.1909 23.6555 -17.8828 23.0583 -17.5654C21.8344 -16.9148 20.2233 -16.0489 18.5045 -15.1173L51.8609 46.4241C53.4639 45.5553 54.9022 44.7827 55.9155 44.2441C56.437 43.9669 56.7688 43.7926 56.9292 43.7095C57.0353 43.6545 56.9387 43.7057 56.739 43.8046C56.6778 43.8349 56.3223 44.0115 55.8398 44.2317C55.642 44.3219 55.0328 44.599 54.2307 44.9168C53.8553 45.0655 53.0227 45.3892 51.94 45.733C51.3935 45.9065 50.4861 46.1805 49.345 46.4481C48.7589 46.5856 47.9773 46.7531 47.0488 46.9063C46.1526 47.0541 44.8459 47.2344 43.258 47.3209L39.4504 -22.5755ZM4.04385 -7.32552L1.63918 -6.03305L34.7794 55.6251L37.184 54.3326L4.04385 -7.32552ZM-17.8439 26.5577V33.5187H52.1561V26.5577H-17.8439ZM-17.8439 33.5187C-17.8439 35.8594 -17.8321 38.0497 -17.8115 39.7129C-17.8016 40.5151 -17.7878 41.3442 -17.7672 42.0528C-17.7585 42.3484 -17.7399 42.9467 -17.6998 43.6128C-17.6866 43.8316 -17.6337 44.7312 -17.4987 45.8454C-17.4562 46.1955 -17.2611 47.8578 -16.7599 49.9221C-16.5773 50.6744 -15.88 53.5629 -14.2291 56.9624C-13.4481 58.5704 -11.5213 62.281 -7.85114 66.0598C-4.15829 69.862 4.31915 76.6753 17.2572 76.6753V6.67533C30.1945 6.67533 38.671 13.4882 42.363 17.2895C46.0323 21.0674 47.9583 24.7767 48.7383 26.3829C50.3875 29.7788 51.0831 32.662 51.264 33.4072C51.7618 35.4573 51.9535 37.0985 51.9925 37.4206C52.1208 38.4789 52.167 39.2953 52.1736 39.4049C52.2006 39.8527 52.2065 40.1293 52.203 40.0107C52.1996 39.8909 52.1915 39.522 52.1831 38.8458C52.1671 37.5523 52.1561 35.6642 52.1561 33.5187H-17.8439ZM17.2572 76.6753C21.2507 76.6753 24.3253 75.9595 24.8976 75.8315C26.0346 75.5773 26.9227 75.3182 27.3748 75.1819C28.3065 74.9008 29.0251 74.6406 29.3021 74.5394C29.9363 74.3076 30.4343 74.1044 30.602 74.0358C31.0229 73.8637 31.3844 73.7069 31.5571 73.6317C31.9648 73.4542 32.408 73.2559 32.8006 73.0789C33.6229 72.7079 34.6668 72.2297 35.7548 71.7255L6.32064 8.21462C5.3849 8.64829 4.56636 9.0227 4.01822 9.26995C3.72557 9.40196 3.60655 9.45411 3.61642 9.44982C3.62735 9.44506 3.66913 9.42689 3.734 9.39926C3.78985 9.37546 3.92259 9.31913 4.10319 9.24527C4.21517 9.19947 4.66889 9.0137 5.27107 8.79359C5.53215 8.69817 6.23779 8.44241 7.15964 8.16434C7.60684 8.02945 8.49078 7.77149 9.62448 7.51803C10.2036 7.38854 11.0802 7.20768 12.1573 7.04898C13.1231 6.90669 14.9491 6.67533 17.2572 6.67533V76.6753ZM35.7548 71.7255L38.2753 70.5574L8.84109 7.04652L6.32062 8.21463L35.7548 71.7255ZM59.7172 36.9874V31.734H-10.2828V36.9874H59.7172ZM9.26604 61.1408C10.6745 61.9385 12.0839 62.7347 13.4941 63.5292L47.8547 2.54272C46.4904 1.77411 45.127 1.00392 43.7644 0.232146L9.26604 61.1408ZM13.4946 63.5295L14.9564 64.3531L49.3159 3.36596L47.8541 2.54242L13.4946 63.5295ZM48.8708 65.5961L48.9874 65.5412L19.1846 2.20245L19.0679 2.25735L48.8708 65.5961ZM49.0067 65.5321C49.7612 65.1765 50.5142 64.8175 51.2655 64.455L20.8519 1.40733C20.2908 1.678 19.7286 1.94608 19.1653 2.21154L49.0067 65.5321ZM51.3215 64.428C51.3112 64.433 51.3766 64.4014 51.5441 64.322C51.6962 64.25 51.8875 64.1598 52.1066 64.0572C52.5472 63.8506 53.0443 63.6194 53.4777 63.4196L24.1721 -0.150689C23.1157 0.336336 21.6195 1.03532 20.796 1.43437L51.3215 64.428ZM53.4829 63.4172C54.2741 63.0523 55.1081 62.6537 55.8771 62.2684C56.2396 62.0868 56.7717 61.8162 57.3572 61.4986C57.6361 61.3474 58.1315 61.0751 58.7221 60.7237C58.8384 60.6545 60.7482 59.5524 62.8635 57.8489L18.9589 3.32929C20.2326 2.3036 21.2965 1.59872 21.7108 1.32756C22.2391 0.981809 22.6712 0.720204 22.9278 0.567517C23.4376 0.264169 23.8299 0.0498624 23.9862 -0.0348941C24.1786 -0.139232 24.3195 -0.212588 24.3865 -0.247261C24.4605 -0.285492 24.5067 -0.308687 24.5199 -0.315322C24.5326 -0.32169 24.3901 -0.251202 24.1669 -0.148297L53.4829 63.4172ZM62.8619 57.8502C69.2516 52.7052 74.2594 44.9133 75.5853 35.4078C76.7613 26.977 74.6057 20.3235 73.1108 16.8183C70.381 10.418 66.3965 6.51696 65.6233 5.74318C63.1634 3.28139 60.8211 1.70326 60.4137 1.42312C58.9002 0.382421 57.4158 -0.477339 56.6855 -0.897304C54.8913 -1.92902 52.4128 -3.27304 49.4298 -4.86702L16.44 56.8717C19.4536 58.482 21.0517 59.3602 21.7908 59.7852C22.3271 60.0935 21.7234 59.7708 20.7519 59.1028C20.6155 59.009 18.4595 57.5761 16.1071 55.2219C15.3877 54.5019 11.4373 50.6453 8.72256 44.2803C7.23514 40.7928 5.08237 34.1548 6.25652 25.7372C7.58058 16.2449 12.5819 8.46409 18.9605 3.32797L62.8619 57.8502ZM49.4299 -4.86696C47.0428 -6.1425 44.7658 -7.33692 42.9913 -8.2458C42.1333 -8.68528 41.2311 -9.14094 40.4337 -9.52746C40.0812 -9.69832 39.4494 -10.0018 38.7333 -10.3172C38.4309 -10.4503 37.6522 -10.7908 36.6616 -11.1589C36.2046 -11.3287 35.1735 -11.7037 33.837 -12.077C33.1667 -12.2642 32.0148 -12.5658 30.5604 -12.8256C29.4306 -13.0274 26.4137 -13.5292 22.5335 -13.3226L26.2547 56.5784C24.1323 56.6914 22.3833 56.5895 21.2195 56.4833C20.0073 56.3728 18.9928 56.2161 18.2497 56.0834C16.8045 55.8252 15.6634 55.5262 15.0057 55.3425C13.6945 54.9762 12.6955 54.6121 12.2775 54.4568C11.3649 54.1176 10.6914 53.8209 10.5199 53.7453C10.0656 53.5453 9.79836 53.4129 9.90173 53.463C10.016 53.5184 10.3905 53.7041 11.0805 54.0575C12.402 54.7343 14.3068 55.7319 16.4399 56.8717L49.4299 -4.86696ZM22.5335 -13.3226C17.9259 -13.0773 14.3974 -11.9194 14.0815 -11.8226C12.9557 -11.4773 12.0754 -11.1451 11.6381 -10.976C10.7177 -10.6202 9.97612 -10.2904 9.62508 -10.1323C8.8363 -9.77713 8.10549 -9.4205 7.59454 -9.16699C6.49475 -8.62131 5.24818 -7.97287 4.04298 -7.32505L37.1849 54.3322C37.8816 53.9577 38.4364 53.673 38.707 53.5388C38.8812 53.4524 38.7277 53.5324 38.3672 53.6947C38.2302 53.7564 37.6655 54.0108 36.8795 54.3146C36.5093 54.4577 35.6856 54.7698 34.6051 55.1011C34.0577 55.269 33.1663 55.528 32.048 55.7794C31.1122 55.9897 28.9957 56.4325 26.2547 56.5784L22.5335 -13.3226ZM39.7634 -7.65337C38.4531 -7.03787 37.1813 -6.42857 36.1613 -5.92647C35.6874 -5.69315 35.0768 -5.38921 34.4848 -5.07977C34.2541 -4.95916 33.6371 -4.63578 32.9159 -4.21843C32.6584 -4.06942 31.6975 -3.51415 30.5417 -2.71886C30.0838 -2.40381 28.6074 -1.38353 26.9079 0.151099C26.1163 0.865974 24.326 2.53473 22.4535 5.00864C21.4644 6.3153 15.8381 13.5659 15.3875 24.7227L85.3305 27.5477C85.0819 33.7029 83.271 38.4083 82.0002 41.0957C80.6734 43.9016 79.229 45.9852 78.2676 47.2554C76.3969 49.7267 74.6096 51.3925 73.8217 52.1039C72.1298 53.6317 70.6646 54.6435 70.2216 54.9483C69.0954 55.7232 68.1784 56.2515 67.9785 56.3672C67.3724 56.7179 66.9248 56.9496 66.912 56.9563C66.7558 57.038 66.7749 57.0253 67.0777 56.8762C67.6113 56.6136 68.4812 56.1951 69.5259 55.7043L39.7634 -7.65337ZM15.3843 24.804C15.0697 33.0704 17.7596 39.1575 18.9495 41.5782C20.3608 44.4493 21.8698 46.5141 22.7024 47.588C24.3789 49.7504 25.9392 51.2255 26.5153 51.7623C27.8495 53.0052 28.9941 53.8701 29.3211 54.1171C30.1949 54.7772 30.9335 55.2701 31.1715 55.4287C31.8065 55.8519 32.4072 56.2271 32.7822 56.4591C33.6252 56.9806 34.6105 57.5688 35.5782 58.1332L70.8448 -2.33386C70.2415 -2.68573 69.7995 -2.95275 69.6085 -3.0709C69.4665 -3.15873 69.6485 -3.04944 69.9944 -2.81894C70.0877 -2.75672 70.7141 -2.34188 71.512 -1.73921C71.801 -1.52087 72.9167 -0.679502 74.2315 0.545433C74.798 1.07318 76.351 2.5407 78.0227 4.69679C78.8529 5.76757 80.3601 7.82969 81.7702 10.6983C82.9589 13.1167 85.6482 19.2016 85.3337 27.4663L15.3843 24.804ZM35.5743 58.1309C36.1641 58.475 36.5855 58.7306 36.752 58.8342C36.8847 58.9166 36.6741 58.7892 36.2932 58.5328C36.185 58.4599 35.5174 58.0131 34.6718 57.3628C34.3557 57.1197 33.2019 56.2324 31.8498 54.938C31.25 54.3637 29.7144 52.8661 28.0724 50.6786C27.2465 49.5782 25.8385 47.5752 24.5191 44.8291C23.3591 42.4147 21.0677 36.9947 21.0677 29.6752H91.0677C91.0677 22.3537 88.7758 16.9315 87.6145 14.5144C86.2938 11.7658 84.884 9.75982 84.0556 8.65614C82.4086 6.46202 80.8657 4.95637 80.256 4.37277C78.8843 3.05963 77.7014 2.1481 77.3471 1.8756C76.425 1.16648 75.6448 0.640246 75.3915 0.469671C74.7206 0.0178945 74.0904 -0.377753 73.7054 -0.617087C72.8365 -1.15714 71.8298 -1.75918 70.8488 -2.33155L35.5743 58.1309ZM21.0677 29.6752C21.0677 21.6108 23.8333 15.7076 25.2732 13.0424C26.8799 10.0683 28.5824 7.9571 29.5555 6.82844C31.4943 4.57961 33.287 3.09468 33.9566 2.54964C35.4921 1.2997 36.7901 0.469785 37.1302 0.252011C38.0629 -0.345245 38.7948 -0.746359 38.9086 -0.809145C39.3208 -1.03672 39.5472 -1.14729 39.4012 -1.07367C39.2172 -0.9809 38.7571 -0.755294 38.1149 -0.454028L67.8428 62.9199C68.8993 62.4243 69.9837 61.901 70.9195 61.4291C71.3334 61.2204 72.0135 60.8735 72.7394 60.4728C73.01 60.3234 73.8638 59.8515 74.8792 59.2013C75.2606 58.957 76.5901 58.1051 78.1469 56.8379C78.827 56.2843 80.6277 54.7919 82.5719 52.5368C83.5477 51.4051 85.2522 49.2911 86.8602 46.3145C88.3015 43.6468 91.0677 37.7414 91.0677 29.6752H21.0677ZM38.1198 -0.456332C36.4001 0.35002 32.0893 2.37576 28.5376 4.04645L58.3331 67.3886C61.8813 65.7196 66.1594 63.7092 67.8379 62.9222L38.1198 -0.456332ZM28.5387 4.04593L16.6439 9.64061L46.4372 72.9838L58.332 67.3891L28.5387 4.04593ZM16.6427 9.64116C13.6657 11.0415 10.9453 12.3211 10.6247 12.4722L40.4695 75.7912C40.7574 75.6555 43.4311 74.3978 46.4383 72.9833L16.6427 9.64116ZM10.6323 12.4687C7.58574 13.9037 5.58009 14.8503 4.29988 15.4591C4.25715 15.4794 1.57048 16.7137 -0.35825 17.8601L35.4082 78.0329C34.7349 78.4331 34.2035 78.7169 34.0291 78.8097C33.792 78.9359 33.6116 79.028 33.5294 79.0697C33.3672 79.152 33.2847 79.1916 33.3545 79.1575C33.4799 79.0964 33.776 78.9539 34.3615 78.6754C35.5068 78.1308 37.3968 77.2385 40.4619 75.7948L10.6323 12.4687ZM-0.374758 17.8699C-13.3442 25.5886 -16.1919 38.1505 -16.6323 39.9666C-17.4237 43.2304 -17.59 46.0047 -17.6344 46.6805C-17.758 48.5656 -17.7813 50.8275 -17.799 52.5531L52.1973 53.271C52.2209 50.9712 52.2446 50.8193 52.2155 51.2626C52.201 51.484 52.1628 52.0183 52.0751 52.7398C51.9958 53.3929 51.8116 54.7497 51.3963 56.4625C51.019 58.0183 50.1327 61.2406 48.094 64.9371C45.8742 68.9621 41.9471 74.1413 35.4247 78.0231L-0.374758 17.8699ZM-17.799 52.553L-17.8358 56.1368L52.1606 56.855L52.1973 53.2712L-17.799 52.553ZM1.83057 89.2061L3.84716 90.2752L36.6369 28.43L34.6203 27.3608L1.83057 89.2061ZM3.84743 90.2754L6.05683 91.4468L38.846 29.6012L36.6366 28.4299L3.84743 90.2754ZM39.1159 92.2479L42.4992 90.6591L12.7443 27.2979L9.36095 28.8867L39.1159 92.2479ZM42.4978 90.6597C43.8547 90.0226 45.1942 89.3773 46.2941 88.8277C46.7971 88.5764 47.5023 88.2195 48.2117 87.8361C48.4837 87.6891 49.2602 87.2684 50.1725 86.7067C50.5078 86.5003 51.7093 85.7609 53.1302 84.6757C53.7271 84.2199 55.4451 82.8926 57.3453 80.8813C58.2766 79.8956 60.0733 77.8911 61.8276 75.0009C63.2534 72.6519 66.9094 66.1128 66.9094 56.8361H-3.09063C-3.09063 47.5616 0.564421 41.0251 1.98833 38.6792C3.74078 35.7921 5.53465 33.7912 6.46218 32.8094C8.35499 30.8059 10.0619 29.4882 10.644 29.0436C12.0355 27.981 13.1933 27.2706 13.4712 27.0995C14.2688 26.6084 14.8761 26.2834 14.9304 26.254C15.2043 26.106 15.2798 26.0726 15.0057 26.2096C14.5513 26.4366 13.7471 26.827 12.7457 27.2972L42.4978 90.6597ZM66.9094 56.8361C66.9094 48.4816 63.9312 42.458 62.6701 40.1329C61.1504 37.331 59.566 35.3314 58.6884 34.2867C56.9152 32.1759 55.2789 30.7439 54.6253 30.183C53.1258 28.8963 51.8208 27.997 51.2718 27.6246C49.9512 26.7289 48.7058 26.0013 47.7091 25.4573L14.1733 86.9012C13.709 86.6478 12.9476 86.2132 11.978 85.5556C11.6046 85.3022 10.4417 84.5082 9.04061 83.3059C8.43615 82.7872 6.8381 81.3922 5.09079 79.3122C4.22614 78.2829 2.65166 76.2972 1.13855 73.5075C-0.115904 71.1947 -3.09063 65.1817 -3.09063 56.8361H66.9094ZM47.7029 25.4539C47.8494 25.5339 47.8991 25.5633 47.8096 25.5122C47.7423 25.4737 47.6358 25.4123 47.4986 25.332C47.2103 25.1633 46.9286 24.9948 46.7486 24.8848L10.2467 84.6143C11.3093 85.2637 12.9469 86.2321 14.1796 86.9046L47.7029 25.4539ZM46.7515 24.8866C46.031 24.4462 45.2584 23.9907 44.5184 23.5745C44.1649 23.3757 43.6501 23.0907 43.0608 22.7849C42.7737 22.636 42.2992 22.3937 41.7169 22.1192C41.4179 21.9783 39.9271 21.2676 37.9609 20.5994L15.4384 86.8771C14.3141 86.4951 13.4486 86.1355 13.0163 85.9512C12.523 85.741 12.1275 85.5585 11.8723 85.4382C11.3714 85.2022 10.9956 85.0092 10.822 84.9191C10.4597 84.7311 10.2312 84.6022 10.2036 84.5867C10.1153 84.5371 10.153 84.557 10.2439 84.6126L46.7515 24.8866ZM37.9309 20.5892C40.6929 21.525 43.9546 23.0276 47.2494 25.4579C48.8314 26.6248 51.5226 28.81 54.1446 32.2177C56.2117 34.9042 61.8564 42.9931 61.3512 54.9781L-8.58671 52.0302C-9.09332 64.0496 -3.43192 72.1774 -1.33336 74.9048C1.32018 78.3535 4.05764 80.5816 5.69717 81.791C9.10699 84.3061 12.5288 85.8914 15.4683 86.8873L37.9309 20.5892ZM61.3496 55.0152C60.9577 64.0853 57.1694 70.3438 55.791 72.4796C54.0402 75.1924 52.2892 77.0704 51.3872 77.991C49.5434 79.8727 47.8981 81.1134 47.3329 81.535C45.9858 82.5399 44.87 83.2135 44.5996 83.3773C43.828 83.8446 43.2421 84.1542 43.19 84.182C42.9269 84.3224 42.8571 84.3528 43.1263 84.2198C43.5739 83.9985 44.3629 83.6194 45.3432 83.1632L15.8122 19.6973C14.4881 20.3134 13.1808 20.937 12.1076 21.4675C11.6164 21.7104 10.9299 22.0539 10.24 22.422C9.97438 22.5637 9.22255 22.9659 8.33812 23.5015C8.01132 23.6994 6.85239 24.4011 5.47618 25.4278C4.89645 25.8603 3.24009 27.1102 1.38879 28.9995C0.483028 29.9239 -1.27079 31.8053 -3.02348 34.521C-4.40384 36.6598 -8.19308 42.9209 -8.58512 51.9931L61.3496 55.0152ZM45.3414 83.1641C49.8835 81.0509 53.3605 79.4217 60.735 75.9515L30.9305 12.6136C23.5975 16.0642 20.2239 17.6449 15.814 19.6965L45.3414 83.1641ZM60.7323 75.9528C64.0147 74.4085 67.2974 72.8653 70.5806 71.3229L40.8172 7.96566C37.5221 9.51362 34.2274 11.0625 30.9331 12.6123L60.7323 75.9528ZM70.578 71.3241C73.4705 69.9656 76.9129 68.3417 78.2308 67.7134L48.1047 4.52781C46.9882 5.06013 43.7087 6.60762 40.8198 7.96446L70.578 71.3241ZM78.2309 67.7133L79.3174 67.1953L49.191 4.00985L48.1046 4.52787L78.2309 67.7133ZM100.392 34.1721L100.428 30.5643L30.4317 29.855L30.3952 33.4629L100.392 34.1721ZM100.428 30.5661L100.465 26.9235L30.4688 26.2106L30.4317 29.8532L100.428 30.5661ZM80.8982 -6.09006L78.8321 -7.19358L45.8543 54.5516L47.9205 55.6551L80.8982 -6.09006ZM78.8301 -7.19464C77.8269 -7.73033 76.8222 -8.25666 75.9792 -8.68629C75.5889 -8.88522 75.0558 -9.15409 74.507 -9.41732C74.2802 -9.52616 73.7271 -9.7902 73.0474 -10.0841C72.7604 -10.2081 71.9809 -10.5427 70.9711 -10.9069C70.4962 -11.0782 69.4694 -11.439 68.1388 -11.7957C67.8381 -11.8763 63.4622 -13.1689 57.825 -12.9688L60.308 56.9871C56.9376 57.1068 54.307 56.7034 53.1592 56.5067C51.7828 56.2708 50.6851 55.997 50.0168 55.8179C48.6964 55.464 47.6825 55.1073 47.223 54.9416C46.2442 54.5886 45.506 54.2707 45.2701 54.1687C44.6925 53.919 44.2808 53.7205 44.23 53.6961C44.0334 53.6017 43.9912 53.5778 44.1947 53.6815C44.5395 53.8572 45.1345 54.1672 45.8563 54.5527L78.8301 -7.19464ZM57.9148 -12.9719C54.6255 -12.8636 52.1055 -12.2994 51.4021 -12.1417C50.3312 -11.9015 49.4877 -11.6588 49.0251 -11.5205C48.0897 -11.2407 47.3662 -10.9808 47.0642 -10.871C46.3949 -10.6275 45.8686 -10.4126 45.6787 -10.3348C45.2169 -10.1456 44.818 -9.9715 44.6182 -9.88387C44.1539 -9.68031 43.6459 -9.45078 43.1889 -9.24236C42.2347 -8.80731 41.0228 -8.24517 39.7595 -7.65152L69.5298 55.7025C70.6213 55.1896 71.5816 54.7448 72.2304 54.449C72.3882 54.3771 72.5136 54.3203 72.6078 54.2779C72.7078 54.233 72.7437 54.2172 72.7301 54.2232C72.722 54.2268 72.6801 54.2451 72.6129 54.2739C72.555 54.2987 72.415 54.3584 72.2232 54.437C72.0996 54.4877 71.6262 54.6817 70.9957 54.9111C70.7132 55.0139 70.0055 55.2684 69.0823 55.5445C68.6258 55.681 67.7875 55.9223 66.7208 56.1616C66.1738 56.2843 65.3902 56.4464 64.44 56.5941C63.5552 56.7316 62.0705 56.9292 60.2182 56.9902L57.9148 -12.9719ZM48.6822 10.3422C48.7584 10.3034 48.768 10.2993 48.6872 10.339C48.6195 10.3723 48.5235 10.419 48.4074 10.475C48.1603 10.594 47.9354 10.7001 47.8083 10.7589L77.2156 74.2823C78.1225 73.8624 79.4424 73.2306 80.3988 72.7446L48.6822 10.3422ZM47.8083 10.7589C47.0284 11.12 45.6826 11.7521 44.7444 12.1975L74.7677 75.432C75.5538 75.0588 76.6884 74.5263 77.2156 74.2823L47.8083 10.7589ZM44.7494 12.1951L44.3138 12.4019L74.327 75.6412L74.7627 75.4344L44.7494 12.1951ZM23.1792 45.518L23.154 48.5281L93.1515 49.1153L93.1768 46.1052L23.1792 45.518ZM23.154 48.527C23.1464 49.4247 23.1275 50.0601 23.1168 50.3051C23.1078 50.5125 23.1175 50.1666 23.1746 49.5429C23.1877 49.4008 23.2883 48.2284 23.5658 46.7055C23.6497 46.245 24.0685 43.8605 25.1344 40.9621C25.5559 39.8159 27.0115 35.9064 30.2355 31.7157C32.751 28.4461 43.9539 15.5377 63.2136 18.457L52.7231 87.6665C71.988 90.5866 83.196 77.6753 85.7165 74.399C88.9456 70.2016 90.4064 66.2818 90.833 65.1218C91.909 62.1957 92.338 59.7692 92.4321 59.2531C92.7298 57.6191 92.8505 56.2813 92.8831 55.9255C92.9793 54.8743 93.0263 53.9071 93.0507 53.3461C93.1069 52.0541 93.1393 50.5632 93.1515 49.1164L23.154 48.527ZM63.3203 18.4734C65.2324 18.7692 66.7159 19.1639 67.4641 19.3751C68.3137 19.6149 68.9991 19.8434 69.4442 19.9983C70.3171 20.302 70.9906 20.5762 71.3203 20.713C72.0036 20.9967 72.5104 21.2343 72.6678 21.3082C72.8867 21.4112 73.0429 21.4881 73.1055 21.519C73.1436 21.5378 73.1718 21.552 73.1888 21.5605C73.206 21.5691 73.2158 21.5741 73.2174 21.5749C73.2193 21.5759 73.2011 21.5666 73.1597 21.5452C73.1192 21.5242 73.0642 21.4956 72.9938 21.4587C72.8515 21.3841 72.6689 21.2875 72.447 21.1691C71.5348 20.6822 70.252 19.9829 68.9364 19.2494L34.847 80.3878C36.4846 81.3009 38.1474 82.2088 39.4888 82.9247C40.1372 83.2708 40.8465 83.6447 41.4944 83.9741C41.7852 84.1219 42.2972 84.38 42.8825 84.6552C43.1437 84.778 43.7355 85.0538 44.4837 85.3644C44.8458 85.5147 45.5467 85.7995 46.4417 86.1109C46.8525 86.2539 49.3314 87.1419 52.6165 87.6502L63.3203 18.4734ZM68.9345 19.2483C68.4708 18.9898 67.6574 18.5357 66.8572 18.117C66.2928 17.8217 64.2208 16.728 61.5569 15.7867C58.5543 14.7259 52.7905 13.1099 45.4921 13.9446C38.5989 14.733 33.6564 17.4388 33.0925 17.7294L65.1584 79.953C64.8449 80.1145 60.1069 82.7294 53.4463 83.4912C46.3806 84.2993 40.8773 82.721 38.2372 81.7882C36.9291 81.326 35.9415 80.8828 35.4292 80.6441C34.8933 80.3944 34.5183 80.1993 34.4042 80.1396C34.2441 80.0558 34.2468 80.0532 34.8488 80.3889L68.9345 19.2483ZM33.0846 17.7334C33.3279 17.608 33.5109 17.5176 33.5682 17.4893C33.6462 17.4508 33.6991 17.4252 33.7144 17.4178C33.744 17.4035 33.7315 17.4097 33.6589 17.4441C33.5185 17.5107 33.29 17.6182 32.9758 17.7648C32.3555 18.0543 31.5338 18.4347 30.6764 18.8283L59.8826 82.4443C61.2356 81.8231 63.9648 80.5685 65.1663 79.9489L33.0846 17.7334ZM30.6788 18.8272C29.654 19.2976 28.6509 19.7656 27.8361 20.154C27.4504 20.3378 26.9798 20.5643 26.5255 20.7908C26.3279 20.8893 25.9193 21.0941 25.4436 21.348C25.2323 21.4607 24.7324 21.7293 24.1182 22.0904C23.8202 22.2656 23.2478 22.6074 22.5495 23.0686C22.2154 23.2892 20.2961 24.5365 18.161 26.4962L65.4938 78.0675C64.2525 79.2067 63.1872 80.0167 62.6332 80.4261C62.0073 80.8887 61.4786 81.2467 61.1276 81.4786C60.4396 81.933 59.8803 82.2667 59.5981 82.4326C59.0156 82.7751 58.5583 83.0201 58.4001 83.1045C58.0304 83.3018 57.7694 83.4312 57.7562 83.4378C57.6708 83.4803 57.7163 83.4568 57.9562 83.3424C58.3928 83.1343 59.0792 82.8131 59.8802 82.4454L30.6788 18.8272ZM18.1527 26.5038C4.01536 39.4876 6.25125 56.318 8.65963 63.4642C10.7438 69.6483 14.0588 73.6362 14.9194 74.6711C17.2183 77.436 19.4492 79.2086 19.8295 79.5166C21.207 80.6322 22.3927 81.4117 22.6327 81.5707C23.444 82.1085 24.1736 82.546 24.4836 82.7311C25.2654 83.1981 26.1587 83.7086 26.9778 84.1705C28.6942 85.1386 30.9483 86.3792 33.3549 87.6796L66.6313 26.0948C64.4738 24.9291 62.6086 23.9004 61.365 23.1991C61.0613 23.0278 60.8185 22.8895 60.6346 22.7836C60.4395 22.6713 60.3639 22.6262 60.3778 22.6345C60.3867 22.6398 60.4602 22.6837 60.5795 22.7575C60.6757 22.8171 60.9454 22.9847 61.3077 23.2248C61.4452 23.316 62.555 24.0417 63.8844 25.1183C64.2407 25.4069 66.4545 27.1638 68.7436 29.9167C69.5991 30.9457 72.911 34.9285 74.9938 41.1086C76.1271 44.4712 77.5046 50.2579 76.4512 57.3944C75.2869 65.2831 71.4518 72.5956 65.5021 78.0598L18.1527 26.5038ZM33.3547 87.6794L40.7039 91.6506L73.9808 30.0661L66.6316 26.095L33.3547 87.6794ZM75.8301 91.6787L78.4252 90.2818L45.247 28.6441L42.6519 30.041L75.8301 91.6787ZM78.4249 90.282C79.626 89.6355 80.8424 88.9613 81.8815 88.3614C82.3613 88.0843 83.0459 87.6835 83.7555 87.2393C84.0616 87.0478 84.7546 86.6105 85.5703 86.0362C85.9439 85.773 86.7769 85.1785 87.7709 84.3578C88.2662 83.9488 89.1225 83.2206 90.1163 82.238C90.8421 81.5204 92.9984 79.3587 95.0781 76.079L35.9611 38.5932C37.1106 36.7804 38.2119 35.4152 38.9402 34.5654C39.7073 33.6705 40.3943 32.961 40.8993 32.4617C41.8823 31.4898 42.7247 30.774 43.2032 30.3789C44.1636 29.5859 44.9512 29.0253 45.2685 28.8019C45.9712 28.307 46.5069 27.9725 46.6164 27.904C46.9328 27.7059 47.0668 27.6326 46.879 27.741C46.5828 27.9121 45.9957 28.2412 45.2473 28.644L78.4249 90.282ZM95.0683 76.0943C97.3344 72.5247 98.4064 69.3735 98.7758 68.2488C99.2636 66.7638 99.554 65.5411 99.7089 64.8376C100.019 63.4304 100.174 62.3035 100.238 61.8156C100.378 60.7492 100.441 59.8886 100.463 59.5669C100.518 58.7952 100.543 58.1086 100.555 57.7466C100.583 56.9171 100.6 55.984 100.611 55.1399C100.634 53.3837 100.643 51.1855 100.641 49.0766C100.639 46.9701 100.626 44.7843 100.6 43.0563C100.587 42.2353 100.568 41.2942 100.537 40.4537C100.524 40.1192 100.492 39.3235 100.418 38.4141C100.394 38.1287 100.292 36.8384 100.019 35.2423C99.9336 34.7427 99.5344 32.3285 98.4971 29.4055C98.083 28.2389 96.6773 24.3368 93.5296 20.1311C91.0809 16.8594 80.2308 3.9753 61.1414 6.37379L69.8679 75.8277C50.7812 78.2259 39.9338 65.3434 37.4877 62.0752C34.3426 57.873 32.9396 53.9764 32.5282 52.8171C31.496 49.9089 31.102 47.517 31.0216 47.047C30.7587 45.5102 30.6662 44.3084 30.6523 44.139C30.6191 43.7348 30.603 43.4387 30.5973 43.3318C30.5904 43.2001 30.5873 43.1191 30.5869 43.1084C30.5863 43.0916 30.5892 43.1695 30.5939 43.3733C30.5983 43.5649 30.6031 43.8148 30.6078 44.1244C30.6272 45.3962 30.6393 47.2199 30.6411 49.141C30.6429 51.0599 30.6342 52.9076 30.6169 54.2244C30.6079 54.9167 30.5987 55.2767 30.5955 55.3732C30.592 55.4742 30.6003 55.1588 30.636 54.6509C30.6494 54.4613 30.7023 53.7058 30.8322 52.7157C30.8911 52.266 31.0415 51.1701 31.3461 49.7864C31.4984 49.0948 31.7862 47.882 32.2713 46.405C32.6381 45.2884 33.7074 42.1433 35.9708 38.5779L95.0683 76.0943ZM61.1667 6.37062C58.5943 6.69193 56.636 7.23556 55.9831 7.4198C55.0807 7.67441 54.3636 7.91606 53.9443 8.06219C53.1031 8.35537 52.443 8.62144 52.1237 8.75223C51.4347 9.03443 50.8713 9.28957 50.5683 9.42866C49.8966 9.73703 49.2481 10.0545 48.6822 10.3422L80.3988 72.7446C80.295 72.7973 80.0946 72.8978 79.7724 73.0457C79.6442 73.1045 79.2309 73.2936 78.6569 73.5287C78.3951 73.6359 77.7837 73.8832 76.981 74.163C76.581 74.3024 75.8806 74.5386 74.9923 74.7893C74.3534 74.9696 72.4066 75.5106 69.8427 75.8309L61.1667 6.37062ZM30.6184 28.3584C29.9899 28.6395 29.3615 28.9211 28.7332 29.2031L57.3998 93.0642C58.0006 92.7945 58.6016 92.5251 59.203 92.2561L30.6184 28.3584ZM28.6991 29.2185C28.3986 29.3538 27.7717 29.6415 27.9349 29.5671C27.9358 29.5667 27.9428 29.5634 27.9547 29.5581C27.9665 29.5527 27.9851 29.5443 28.009 29.5336C28.0552 29.5128 28.1335 29.4779 28.2352 29.4336C28.4251 29.3508 28.7905 29.194 29.2691 29.0068C31.1568 28.2686 36.6579 26.2797 43.9933 26.8356C50.4844 27.3275 55.0857 29.6224 55.6425 29.8871C56.0431 30.0776 57.0205 30.5809 55.4651 29.7752L23.2681 91.9311C23.5004 92.0514 23.4551 92.0293 23.8794 92.2509C24.1052 92.3688 24.7882 92.7266 25.5878 93.1067C26.7554 93.6618 31.7957 96.112 38.7038 96.6355C46.4563 97.223 52.3524 95.142 54.7628 94.1994C55.8718 93.7657 56.7822 93.3471 56.9956 93.2497C57.5028 93.0182 57.2705 93.1224 57.434 93.0488L28.6991 29.2185ZM55.4645 29.7749C54.6184 29.3366 52.4524 28.2146 49.8997 27.2678C48.6269 26.7957 45.9132 25.8505 42.3834 25.329C39.1041 24.8445 31.8474 24.2116 23.5793 27.6404L50.3948 92.3006C42.2643 95.6724 35.19 95.026 32.1529 94.5773C28.8653 94.0916 26.4536 93.2314 25.5574 92.899C23.7581 92.2316 22.6443 91.6079 23.2687 91.9314L55.4645 29.7749ZM23.5878 27.6369C22.3321 28.1573 19.3443 29.5775 18.0569 30.1873L48.0228 93.449C48.9678 93.0014 49.8538 92.5841 50.5114 92.2763C50.8448 92.1202 51.0883 92.0069 51.2388 91.9373C51.3183 91.9006 51.3315 91.8947 51.3004 91.9089C51.2862 91.9153 51.2213 91.9447 51.1256 91.9872C51.0905 92.0028 50.7877 92.1377 50.3863 92.3041L23.5878 27.6369ZM18.0561 30.1877C17.1934 30.5963 16.457 30.9379 15.9926 31.149C15.7342 31.2664 15.6983 31.2805 15.8122 31.2314C15.8293 31.2241 16.1548 31.0829 16.6232 30.8989C16.8128 30.8244 17.4249 30.5847 18.2354 30.3132C18.6144 30.1863 19.4599 29.9091 20.557 29.6251C21.1108 29.4817 22.0309 29.2574 23.1843 29.052C24.1181 28.8856 26.3892 28.5103 29.3163 28.5103V98.5103C34.1562 98.5103 37.9273 97.4359 38.1004 97.391C39.209 97.1041 40.0688 96.8225 40.4651 96.6897C41.3103 96.4067 41.9689 96.1497 42.2161 96.0526C42.7998 95.8233 43.2852 95.6154 43.5018 95.5221C44.0147 95.3012 44.5361 95.0667 44.9526 94.8775C45.838 94.4751 46.9216 93.9707 48.0236 93.4486L18.0561 30.1877ZM29.3163 28.5103C28.031 28.5103 25.4149 28.5701 22.2003 29.2251C19.7062 29.7333 12.2863 31.4488 5.36463 37.8425C-3.76379 46.2746 -7.26174 58.3144 -5.43223 69.3377C-4.03936 77.7301 0.0138115 83.2388 1.43599 85.0802C4.59439 89.1698 7.98609 91.6153 8.54654 92.0313C9.76062 92.9324 10.8336 93.6165 11.4602 94.0061C13.6424 95.3629 16.4831 96.868 18.8838 98.1281L51.4168 36.1475C48.5296 34.632 48.0411 34.3233 48.4222 34.5603C48.5985 34.6699 49.3168 35.1175 50.2649 35.8211C50.5593 36.0397 53.7738 38.327 56.837 42.2933C58.2116 44.0731 62.2377 49.5289 63.6232 57.8767C65.4453 68.8554 61.9596 80.8587 52.8622 89.2621C45.9717 95.6271 38.6017 97.3216 36.1755 97.8159C33.0288 98.457 30.4986 98.5103 29.3163 98.5103V28.5103ZM18.885 98.1288L24.1669 100.901L56.6976 38.9191L51.4157 36.1469L18.885 98.1288ZM58.2686 101.05L59.9541 100.185L27.9681 37.9199L26.2825 38.7857L58.2686 101.05ZM59.9545 100.184C61.3211 99.4823 64.1605 98.034 66.232 96.9829L34.5554 34.5602C32.421 35.6432 29.4714 37.1476 27.9677 37.9201L59.9545 100.184ZM66.2363 96.9807C67.4198 96.3799 68.5756 95.7819 69.5092 95.2855C69.9347 95.0593 70.5258 94.7418 71.1124 94.41C71.3208 94.2921 72 93.908 72.7974 93.4038C73.0254 93.2597 74.2465 92.495 75.6785 91.3775C76.0911 91.0555 78.3774 89.3023 80.7469 86.534C81.6819 85.4417 84.9424 81.5976 87.0931 75.619C89.4999 68.9285 92.1669 53.2058 79.7548 39.8974L28.5634 87.6409C16.1523 74.3336 18.8194 58.6124 21.2255 51.9238C23.3756 45.9471 26.6345 42.1053 27.5672 41.0157C29.932 38.2529 32.2103 36.5069 32.6118 36.1936C34.0213 35.0936 35.2073 34.3528 35.3878 34.2386C36.0905 33.7943 36.626 33.4946 36.6472 33.4826C36.8593 33.3626 36.9014 33.3435 36.6443 33.4802C36.213 33.7095 35.4702 34.0958 34.5511 34.5623L66.2363 96.9807ZM79.6111 39.7442C77.1558 37.1432 74.7885 35.4945 74.6829 35.418C73.9969 34.9213 73.438 34.5554 73.1788 34.3874C72.6273 34.0302 72.1839 33.7657 72.0253 33.6713C71.6482 33.447 71.3398 33.2732 71.2334 33.2133C70.9645 33.062 70.7166 32.9266 70.5733 32.8485C70.2483 32.6715 69.8629 32.4645 69.479 32.2594C68.6889 31.8373 67.6515 31.2876 66.5459 30.7056L33.9412 92.6486C34.9572 93.1834 35.8616 93.6628 36.4909 93.999C36.8167 94.1731 37.0104 94.2777 37.091 94.3216C37.1506 94.354 37.0621 94.3064 36.904 94.2174C36.8529 94.1887 36.5878 94.0397 36.241 93.8334C36.0976 93.7481 35.6661 93.4909 35.1233 93.1393C34.8684 92.9742 34.3131 92.6106 33.6298 92.1158C33.2849 91.8661 32.7217 91.4492 32.0502 90.902C31.5109 90.4626 30.1983 89.3738 28.7071 87.7941L79.6111 39.7442ZM66.5443 30.7047L63.5474 29.1275L30.946 91.0723L33.9429 92.6495L66.5443 30.7047ZM31.1988 28.0986L30.6113 28.3616L59.2101 92.2529L59.7976 91.99L31.1988 28.0986ZM63.5474 29.1275C53.4943 23.8366 41.5678 23.4572 31.1988 28.0986L59.7976 91.99C50.5495 96.1295 39.9124 95.7912 30.946 91.0723L63.5474 29.1275ZM24.1669 100.901C34.8322 106.499 47.5547 106.554 58.2686 101.05L26.2825 38.7857C35.8382 33.8769 47.1853 33.9266 56.6976 38.9191L24.1669 100.901ZM100.465 26.9235C100.606 13.1322 93.0638 0.407502 80.8982 -6.09006L47.9205 55.6551C37.0701 49.86 30.3436 38.5109 30.4688 26.2106L100.465 26.9235ZM-17.8358 56.1368C-17.9777 69.9696 -10.3914 82.7261 1.83057 89.2061L34.6203 27.3608C45.5209 33.1402 52.2871 44.5177 52.1606 56.855L-17.8358 56.1368ZM40.7039 91.6506C51.6616 97.5715 64.863 97.5821 75.8301 91.6787L42.6519 30.041C52.4335 24.7758 64.2077 24.7852 73.9808 30.0661L40.7039 91.6506ZM14.9564 64.3531C25.3934 70.2331 38.0313 70.6963 48.8708 65.5961L19.0679 2.25735C28.7355 -2.29156 40.0072 -1.87844 49.3159 3.36596L14.9564 64.3531ZM27.941 53.9499C38.2249 59.4518 50.501 59.7826 61.0664 54.8426L31.4175 -8.56834C40.8407 -12.9743 51.7897 -12.6792 60.9618 -7.7722L27.941 53.9499ZM6.05683 91.4468C16.3375 96.8973 28.5833 97.1941 39.1159 92.2479L9.36095 28.8867C18.7549 24.4752 29.6768 24.7399 38.846 29.6012L6.05683 91.4468ZM38.2753 70.5574C51.3501 64.4978 59.7172 51.3981 59.7172 36.9874H-10.2828C-10.2828 24.1345 -2.82029 12.451 8.84109 7.04652L38.2753 70.5574ZM79.3174 67.1953C92.0713 61.1144 100.248 48.3008 100.392 34.1721L30.3952 33.4629C30.5229 20.8617 37.816 9.43339 49.191 4.00985L79.3174 67.1953ZM59.7172 31.734C59.7172 57.6321 31.7836 73.9062 9.25415 61.134L43.7763 0.238886C19.6414 -13.4435 -10.2828 3.99033 -10.2828 31.734H59.7172ZM1.63918 -6.03305C-10.3593 0.41591 -17.8439 12.936 -17.8439 26.5577H52.1561C52.1561 38.7068 45.4807 49.8733 34.7794 55.6251L1.63918 -6.03305ZM44.3138 12.4019C31.5065 18.4802 23.2981 31.342 23.1792 45.518L93.1768 46.1052C93.0707 58.7486 85.7498 70.22 74.327 75.6412L44.3138 12.4019ZM56.8862 52.7741C47.1607 57.9792 35.4775 57.9808 25.7505 52.7782L58.765 -8.94735C47.859 -14.7805 34.7597 -14.7788 23.8553 -8.9427L56.8862 52.7741Z" fill="#FF3F3C" mask="url(#path-2-inside-1_293_55596)"></path></svg> 